<?xml version="1.0" standalone="no"?><!DOCTYPE svg PUBLIC "-//W3C//DTD SVG 1.1//EN" "http://www.w3.org/Graphics/SVG/1.1/DTD/svg11.dtd"><svg t="1647929363755" class="icon" viewBox="0 0 1024 1024" version="1.1" xmlns="http://www.w3.org/2000/svg" p-id="3361" xmlns:xlink="http://www.w3.org/1999/xlink" width="200" height="200"><defs><style type="text/css">@font-face { font-family: feedback-iconfont; src: url("//at.alicdn.com/t/font_1031158_u69w8yhxdu.woff2?t=1630033759944") format("woff2"), url("//at.alicdn.com/t/font_1031158_u69w8yhxdu.woff?t=1630033759944") format("woff"), url("//at.alicdn.com/t/font_1031158_u69w8yhxdu.ttf?t=1630033759944") format("truetype"); }
</style></defs><path d="M960 85.333333a64 64 0 0 1 63.701333 57.856L1024 149.333333v449.237334a42.666667 42.666667 0 0 1-85.034667 4.949333L938.666667 598.613333V170.666667H85.333333v682.666666h384.170667a42.666667 42.666667 0 0 1 42.368 37.674667l0.298667 4.992a42.666667 42.666667 0 0 1-37.717334 42.368l-4.949333 0.298667H64a64 64 0 0 1-63.701333-57.856L0 874.666667v-725.333334a64 64 0 0 1 57.856-63.701333L64 85.333333h896z" p-id="3362"></path><path d="M501.205333 270.592a42.666667 42.666667 0 0 1 67.498667 51.925333l-3.242667 4.266667-149.333333 170.666667a42.666667 42.666667 0 0 1-60.416 3.84l-3.84-3.84-149.333333-170.666667a42.666667 42.666667 0 0 1 60.458666-60.032l3.797334 3.84L384 404.48l117.205333-133.973333z" p-id="3363"></path><path d="M533.333333 426.666667a42.666667 42.666667 0 0 1 4.992 85.034666L533.333333 512h-298.666666a42.666667 42.666667 0 0 1-4.992-85.034667L234.666667 426.666667h298.666666zM512 597.333333a42.666667 42.666667 0 0 1 4.992 85.034667L512 682.666667H256a42.666667 42.666667 0 0 1-4.992-85.034667L256 597.333333h256z" p-id="3364"></path><path d="M384 426.666667a42.666667 42.666667 0 0 1 42.368 37.674666L426.666667 469.333333v256a42.666667 42.666667 0 0 1-85.034667 4.992L341.333333 725.333333v-256a42.666667 42.666667 0 0 1 42.666667-42.666666z" p-id="3365"></path><path d="M830.592 670.165333a42.666667 42.666667 0 0 1 60.330667 0l120.661333 120.704a42.666667 42.666667 0 0 1 0 60.330667l-120.661333 120.661333a42.666667 42.666667 0 0 1-60.330667-60.330666l90.453333-90.496-90.453333-90.538667a42.666667 42.666667 0 0 1 0-60.330667zM617.301333 670.165333a42.666667 42.666667 0 0 1 60.373334 0l120.661333 120.704a42.666667 42.666667 0 0 1 0 60.330667l-120.661333 120.661333a42.666667 42.666667 0 0 1-60.373334-60.330666l90.453334-90.496-90.453334-90.538667a42.666667 42.666667 0 0 1 0-60.330667z" p-id="3366"></path></svg>