<?xml version="1.0" standalone="no"?><!DOCTYPE svg PUBLIC "-//W3C//DTD SVG 1.1//EN" "http://www.w3.org/Graphics/SVG/1.1/DTD/svg11.dtd"><svg t="1647929861768" class="icon" viewBox="0 0 1024 1024" version="1.1" xmlns="http://www.w3.org/2000/svg" p-id="6052" xmlns:xlink="http://www.w3.org/1999/xlink" width="200" height="200"><defs><style type="text/css">@font-face { font-family: feedback-iconfont; src: url("//at.alicdn.com/t/font_1031158_u69w8yhxdu.woff2?t=1630033759944") format("woff2"), url("//at.alicdn.com/t/font_1031158_u69w8yhxdu.woff?t=1630033759944") format("woff"), url("//at.alicdn.com/t/font_1031158_u69w8yhxdu.ttf?t=1630033759944") format("truetype"); }
</style></defs><path d="M709.072382 254.97086c-2.175592-16.97815-12.051074-26.363057-29.477139-28.474661-17.575371 0-30.650253 7.422608-39.373951 22.182507l-128.253286 170.08011-122.131767-170.101439c-8.723698-14.717241-21.947885-22.182507-39.373951-22.182508-17.575371 2.132933-27.301548 11.667146-29.477139 28.495991 2.175592 8.553063 5.374992 16.97815 9.875481 25.381907 2.175592 2.132933 3.348705 4.223208 3.348706 6.313483l105.729509 151.011685h-78.875878c-24.102148 0-36.153221 9.555542-36.153221 28.495991 2.175592 14.866546 14.226666 23.291633 36.153221 25.381907h114.901123v56.949322h-114.901123c-24.102148 0-36.153221 9.555542-36.153221 28.495991 2.175592 14.717241 14.226666 23.291633 36.153221 25.381907h114.901123v126.824221c0 21.052053 11.901768 31.69539 36.153221 31.69539 23.974172 0 36.025245-10.664667 36.025246-31.69539v-126.546939h114.879793c21.798579-2.090275 33.849653-10.664667 36.174551-25.381908 0-19.068425-12.051074-28.474661-36.174551-28.474661H548.163886v-56.949322h114.879793c21.798579-2.132933 33.849653-10.536691 36.174551-25.381908 0-19.089754-12.051074-28.49599-36.174551-28.49599h-78.705242l111.829698-151.160991c-0.149305-2.23958 0.853173-4.351184 3.050095-6.441458 6.676082-12.776271 9.875482-21.052053 9.875482-25.381908zM963.232727 627.509009l-84.976067 8.830344c-9.000979 0.853173-16.850174 6.441459-20.476161 14.439959-3.625987 7.870524-2.623508 17.276761 2.602179 24.272782l8.425087 11.091254-372.410173 267.939095-100.055906-120.212127a31.247474 31.247474 0 0 0-41.826824-5.204358c-41.976129 30.159678-104.300444 74.503364-114.453207 80.816847a28.922577 28.922577 0 0 0-14.674582 35.342707c5.374992 15.442438 22.523777 23.568914 38.499448 18.513862 5.225687-1.685017 8.851674-2.943448 103.404612-70.706743l100.077235 120.233457c5.972214 7.145327 14.802558 10.941948 23.675561 10.941948 6.249495 0 12.626966-1.834323 18.151264-5.886896l395.637817-284.511988 6.10019 8.147806c4.7991 6.313483 12.49899 9.960799 20.476161 9.960799 0.874503 0 1.749005 0 2.623508-0.149305a25.808494 25.808494 0 0 0 20.625466-14.439959l34.553521-75.61249a24.272782 24.272782 0 0 0-2.772813-24.422087 26.555021 26.555021 0 0 0-23.227645-9.384907zM511.968006 0C229.631611 0 0 221.782416 0 494.499281c0 132.028578 53.323335 256.165302 149.881231 349.587786a31.290133 31.290133 0 0 0 42.999937 0 28.581308 28.581308 0 0 0 0-41.506884c-85.253348-82.203254-132.177883-191.772043-132.177883-308.080902 0-240.296278 202.330063-435.715637 451.115416-435.715636 248.806682 0 451.115416 195.419359 451.115416 435.715636 0 16.274282 13.650774 29.327834 30.500947 29.327835 16.850174 0 30.372972-13.181528 30.372972-29.327835C1023.808036 221.782416 794.176425 0 511.968006 0z" fill="#000000" p-id="6053"></path></svg>