<?xml version="1.0" standalone="no"?><!DOCTYPE svg PUBLIC "-//W3C//DTD SVG 1.1//EN" "http://www.w3.org/Graphics/SVG/1.1/DTD/svg11.dtd"><svg t="1647929350142" class="icon" viewBox="0 0 1024 1024" version="1.1" xmlns="http://www.w3.org/2000/svg" p-id="3196" xmlns:xlink="http://www.w3.org/1999/xlink" width="200" height="200"><defs><style type="text/css">@font-face { font-family: feedback-iconfont; src: url("//at.alicdn.com/t/font_1031158_u69w8yhxdu.woff2?t=1630033759944") format("woff2"), url("//at.alicdn.com/t/font_1031158_u69w8yhxdu.woff?t=1630033759944") format("woff"), url("//at.alicdn.com/t/font_1031158_u69w8yhxdu.ttf?t=1630033759944") format("truetype"); }
</style></defs><path d="M960 85.333333a64 64 0 0 1 63.701333 57.856L1024 149.333333V512a42.666667 42.666667 0 0 1-85.034667 4.992L938.666667 512V170.666667H85.333333v682.666666h426.666667a42.666667 42.666667 0 0 1 42.368 37.674667L554.666667 896a42.666667 42.666667 0 0 1-37.674667 42.368L512 938.666667H64a64 64 0 0 1-63.701333-57.856L0 874.666667v-725.333334a64 64 0 0 1 57.856-63.701333L64 85.333333h896z" p-id="3197"></path><path d="M501.205333 270.592a42.666667 42.666667 0 0 1 67.498667 51.925333l-3.242667 4.266667-149.333333 170.666667a42.666667 42.666667 0 0 1-60.416 3.84l-3.84-3.84-149.333333-170.666667a42.666667 42.666667 0 0 1 60.458666-60.032l3.797334 3.84L384 404.48l117.205333-133.973333z" p-id="3198"></path><path d="M533.333333 426.666667a42.666667 42.666667 0 0 1 4.992 85.034666L533.333333 512h-298.666666a42.666667 42.666667 0 0 1-4.992-85.034667L234.666667 426.666667h298.666666zM512 597.333333a42.666667 42.666667 0 0 1 4.992 85.034667L512 682.666667H256a42.666667 42.666667 0 0 1-4.992-85.034667L256 597.333333h256z" p-id="3199"></path><path d="M384 426.666667a42.666667 42.666667 0 0 1 42.368 37.674666L426.666667 469.333333v256a42.666667 42.666667 0 0 1-85.034667 4.992L341.333333 725.333333v-256a42.666667 42.666667 0 0 1 42.666667-42.666666z" p-id="3200"></path><path d="M1011.072 653.056a43.904 43.904 0 0 0-62.506667 0l-124.970666 126.08a44.842667 44.842667 0 0 0 0 63.061333l125.013333 126.08c17.237333 17.408 45.226667 17.408 62.464 0a44.842667 44.842667 0 0 0 0-63.061333L917.333333 810.666667l93.696-94.549334a44.842667 44.842667 0 0 0 0-63.061333z" p-id="3201"></path><path d="M797.738667 653.056a43.904 43.904 0 0 0-62.506667 0l-124.970667 126.08a44.842667 44.842667 0 0 0 0 63.061333l125.013334 126.08c17.237333 17.408 45.226667 17.408 62.464 0a44.842667 44.842667 0 0 0 0-63.061333L704 810.666667l93.696-94.549334a44.842667 44.842667 0 0 0 0-63.061333z" p-id="3202"></path></svg>