<?xml version="1.0" standalone="no"?><!DOCTYPE svg PUBLIC "-//W3C//DTD SVG 1.1//EN" "http://www.w3.org/Graphics/SVG/1.1/DTD/svg11.dtd"><svg t="1647929393010" class="icon" viewBox="0 0 1024 1024" version="1.1" xmlns="http://www.w3.org/2000/svg" p-id="4559" xmlns:xlink="http://www.w3.org/1999/xlink" width="200" height="200"><defs><style type="text/css">@font-face { font-family: feedback-iconfont; src: url("//at.alicdn.com/t/font_1031158_u69w8yhxdu.woff2?t=1630033759944") format("woff2"), url("//at.alicdn.com/t/font_1031158_u69w8yhxdu.woff?t=1630033759944") format("woff"), url("//at.alicdn.com/t/font_1031158_u69w8yhxdu.ttf?t=1630033759944") format("truetype"); }
</style></defs><path d="M518.582857 75.922286c144.530286 161.792 235.081143 272.969143 271.798857 333.385143 51.638857 85.138286 78.409143 160.768 78.409143 217.673142 0 180.224-129.755429 326.509714-350.208 326.509715-220.452571 0-364.982857-146.285714-364.982857-326.509715 0-56.905143 24.868571-141.750857 73.435429-217.673142 38.912-60.416 136.045714-171.593143 291.547428-333.385143z m-2.194286 120.100571c-116.589714 123.611429-190.902857 210.358857-220.891428 257.170286-37.888 59.099429-60.708571 129.170286-60.708572 173.933714 0 139.995429 113.371429 245.321143 283.648 245.321143 166.473143 0 269.019429-100.937143 269.019429-245.321143 0-40.082286-22.528-102.692571-66.706286-175.689143-28.233143-46.665143-96.987429-132.827429-204.361143-255.414857z m53.979429 188.708572l-26.477714 168.667428 97.28 8.338286-189.001143 196.900571 26.331428-168.667428-97.28-8.338286L570.368 384.731429z" p-id="4560"></path></svg>