<?xml version="1.0" standalone="no"?><!DOCTYPE svg PUBLIC "-//W3C//DTD SVG 1.1//EN" "http://www.w3.org/Graphics/SVG/1.1/DTD/svg11.dtd"><svg t="1647929404082" class="icon" viewBox="0 0 1024 1024" version="1.1" xmlns="http://www.w3.org/2000/svg" p-id="5153" xmlns:xlink="http://www.w3.org/1999/xlink" width="200" height="200"><defs><style type="text/css">@font-face { font-family: feedback-iconfont; src: url("//at.alicdn.com/t/font_1031158_u69w8yhxdu.woff2?t=1630033759944") format("woff2"), url("//at.alicdn.com/t/font_1031158_u69w8yhxdu.woff?t=1630033759944") format("woff"), url("//at.alicdn.com/t/font_1031158_u69w8yhxdu.ttf?t=1630033759944") format("truetype"); }
</style></defs><path d="M128 170.666667c0-23.573333 18.986667-42.666667 42.666667-42.666667h682.666666c23.573333 0 42.666667 18.986667 42.666667 42.666667v682.666666c0 23.573333-18.986667 42.666667-42.666667 42.666667H170.666667c-23.573333 0-42.666667-18.986667-42.666667-42.666667V170.666667z m42.666667 0v682.666666h682.666666V170.666667H170.666667z m146.602666 106.666666c34.816 26.965333 63.829333 53.589333 87.04 79.872l-35.328 34.816c-19.114667-24.234667-47.616-51.712-85.504-82.432L317.269333 277.333333zM610.133333 736.085333a6662.4 6662.4 0 0 1-89.6-1.024c-31.744-0.341333-58.538667-3.242667-80.384-8.704-19.456-5.802667-37.205333-17.749333-53.248-35.84-6.485333-8.533333-12.8-12.8-18.944-12.8-10.24 0-28.501333 23.04-54.784 69.12L277.333333 713.557333c25.6-41.642667 48.64-67.584 69.12-77.824v-144.896H277.333333v-45.056h114.688v194.048c2.730667 2.730667 4.949333 5.12 6.656 7.168 11.605333 13.653333 23.722667 23.893333 36.352 30.72 15.701333 7.509333 38.058667 11.776 67.072 12.8 38.229333 0.682667 72.021333 1.024 101.376 1.024 16.384 0 41.984-0.341333 76.8-1.024a932.096 932.096 0 0 0 59.392-2.56l-11.776 48.128H610.133333z m-187.392-440.32h298.496v47.104h-114.176c-3.413333 9.216-9.216 22.698667-17.408 40.448v286.208h-48.128v-208.384c-29.354667 38.229333-65.536 73.045333-108.544 104.448l-30.72-40.448c74.069333-51.2 126.293333-111.957333 156.672-182.272h-136.192v-47.104z m210.944 98.816c45.397333 53.589333 80.725333 101.376 105.984 143.36l-40.96 28.16c-25.258667-43.349333-59.392-91.477333-102.4-144.384l37.376-27.136z" fill="#3D3D3D" p-id="5154"></path></svg>