<?xml version="1.0" standalone="no"?><!DOCTYPE svg PUBLIC "-//W3C//DTD SVG 1.1//EN" "http://www.w3.org/Graphics/SVG/1.1/DTD/svg11.dtd"><svg t="1647929396959" class="icon" viewBox="0 0 1024 1024" version="1.1" xmlns="http://www.w3.org/2000/svg" p-id="4857" xmlns:xlink="http://www.w3.org/1999/xlink" width="200" height="200"><defs><style type="text/css">@font-face { font-family: feedback-iconfont; src: url("//at.alicdn.com/t/font_1031158_u69w8yhxdu.woff2?t=1630033759944") format("woff2"), url("//at.alicdn.com/t/font_1031158_u69w8yhxdu.woff?t=1630033759944") format("woff"), url("//at.alicdn.com/t/font_1031158_u69w8yhxdu.ttf?t=1630033759944") format("truetype"); }
</style></defs><path d="M922.8 336.8c-22.9-51.7-55.6-98-97.2-137.7-41.4-39.4-89.5-70.3-143.1-91.9-55.2-22.2-113.7-33.4-174-33.4-119.4 0-230.9 44.6-314.2 125.6-83.6 81.3-129.6 190.7-129.6 307.9 0 59.3 11.7 117 34.6 171.5 22.3 52.8 54.1 100.3 94.6 141.2 40.7 41 88.2 73.3 141 95.8 54.9 23.5 113.4 35.3 173.6 35.3 60.3 0 118.9-11.9 174.5-35.3 53.4-22.5 101.6-54.7 143-95.6 41.5-40.9 74.1-88.4 96.9-141.1 23.7-54.7 35.8-112.6 35.8-171.9 0-59.2-12.1-116.6-35.9-170.4zM508.5 881.2c-206.2 0-373.9-167.7-373.9-373.9 0-203.8 164.2-363.5 373.9-363.5 209.6 0 380.1 163.1 380.1 363.5 0.1 202.7-174 373.9-380.1 373.9z" p-id="4858"></path><path d="M681.1 423.7H422.3l30-27.5c11.6-10.6 12.4-28.8 1.7-40.4l-1.5-1.7c-10.6-11.6-28.8-12.4-40.4-1.7L325 432.3c-11.6 10.6-12.4 28.8-1.7 40.4l1.5 1.7c6.9 7.5 16.9 10.4 26.2 8.8h330.1c15.7 0 28.6-12.9 28.6-28.6v-2.3c-0.1-15.8-12.9-28.6-28.6-28.6z" p-id="4859"></path><path d="M698.5 540.3c-6.9-7.5-16.9-10.4-26.2-8.8H342.2c-15.7 0-28.6 12.9-28.6 28.6v2.3c0 15.7 12.9 28.6 28.6 28.6H601l-30 27.5c-11.6 10.6-12.4 28.8-1.7 40.4l1.5 1.7c10.6 11.6 28.8 12.4 40.4 1.7l87.1-79.9c11.6-10.6 12.4-28.8 1.7-40.4l-1.5-1.7z" p-id="4860"></path></svg>